<?xml version="1.0" encoding="utf-8"?>
<!-- Generator: Adobe Illustrator 17.0.0, SVG Export Plug-In . SVG Version: 6.00 Build 0)  -->
<!DOCTYPE svg PUBLIC "-//W3C//DTD SVG 1.1//EN" "http://www.w3.org/Graphics/SVG/1.1/DTD/svg11.dtd">
<svg version="1.1" id="レイヤー_1" xmlns="http://www.w3.org/2000/svg" xmlns:xlink="http://www.w3.org/1999/xlink" x="0px"
   y="0px" width="100px" height="70px" viewBox="0 0 100 70" enable-background="new 0 0 100 70" xml:space="preserve">
<g>
  <path d="M0.651,13.662C1.183,7.063,7.015,1.288,13.61,0.828C13.61,0.828,25.487,0,49.41,0c23.924,0,36.976,0.867,36.976,0.867
    c6.596,0.438,12.457,6.193,13.024,12.789c0,0,0.59,6.863,0.59,20.735c0,13.872-0.651,21.944-0.651,21.944
    c-0.532,6.599-6.364,12.375-12.958,12.835c0,0-11.878,0.829-35.802,0.829c-23.924,0-36.976-0.868-36.976-0.868
    c-6.596-0.439-12.457-6.195-13.023-12.79c0,0-0.589-6.863-0.589-20.735C0,21.734,0.651,13.662,0.651,13.662z"/>
  <polygon fill="#FFFFFF" points="39.157,21.078 65.789,34.999 39.157,48.922   "/>
</g>
</svg>

